PathFileType	4	(X/Y/Z)	C:\Users\chris\Documents\GitHub\baseballds\vids\pitch4_Sports2D\pitch4_Sports2D_px_person00.trc
DataRate	CameraRate	NumFrames	NumMarkers	Units	OrigDataRate	OrigDataStartFrame	OrigNumFrames
30	30	7	22	m	30	208	238
Frame#	Time	Hip			RHip			RKnee			RAnkle			RBigToe			RSmallToe			RHeel			LHip			LKnee			LAnkle			LBigToe			LSmallToe			LHeel			Neck			Head			Nose			RShoulder			RElbow			RWrist			LShoulder			LElbow			LWrist		
		X1	Y1	Z1	X2	Y2	Z2	X3	Y3	Z3	X4	Y4	Z4	X5	Y5	Z5	X6	Y6	Z6	X7	Y7	Z7	X8	Y8	Z8	X9	Y9	Z9	X10	Y10	Z10	X11	Y11	Z11	X12	Y12	Z12	X13	Y13	Z13	X14	Y14	Z14	X15	Y15	Z15	X16	Y16	Z16	X17	Y17	Z17	X18	Y18	Z18	X19	Y19	Z19	X20	Y20	Z20	X21	Y21	Z21	X22	Y22	Z22
208	6.933333333333334	388.7521912574761	1200.83690657613	0.0	366.26790920807133	1223.6435346839748	0.0	430.58387091493944	1450.103283380923	0.0	297.90506382654655	1700.312656997999	0.0	406.904894606028	1801.6244108425883	0.0	370.0365786803312	1803.2436640233295	0.0	250.0182224162419	1727.7226552534016	0.0	422.4020100371449	1204.6291450437038	0.0	495.49287570626143	1317.7746913526667	0.0	497.055083107486	1393.1244988300705	0.0	536.7546304977257	1426.0038084889823	0.0	544.1945821556516	1414.645428252009	0.0	493.75371436924297	1396.0748749060199	0.0	414.2564589022622	900.2231093479055	0.0	456.1649925218255	771.4636577444015	0.0	509.7496271501233	854.3165682265478	0.0	361.9740137647608	943.6681953172542	0.0	231.89700934707358	994.9549988865974	0.0	388.136857084778	1076.2771919756326	0.0	449.7308397589894	921.5665447631517	0.0	490.9326891383661	813.6538863898038	0.0	560.8527119045239	754.6401569331344	0.0
209	6.966666666666667	399.8192299937659	1194.6464722236724	0.0	395.96049757201774	1213.2094241934958	0.0	420.82904889653344	1443.043748810881	0.0	317.5752494819022	1670.6178072718064	0.0	401.0180535885041	1796.9279286091116	0.0	373.9535225819658	1791.862166342919	0.0	272.6866674413311	1693.725645482461	0.0	410.8469052699684	1201.682866475177	0.0	480.0794071583815	1330.055403150799	0.0	471.7238741240602	1410.6637415720752	0.0	512.6570306089743	1436.9784030966466	0.0	522.9797922557046	1429.0483185025637	0.0	467.45436934110126	1415.359762629972	0.0	415.65353306338983	899.1561312135489	0.0	453.148336899099	772.1145267744125	0.0	503.9090567335667	851.5498956099326	0.0	379.67504552766536	934.2343281945541	0.0	255.19384965220286	975.8138053497717	0.0	413.4986361483628	982.8225684268259	0.0	435.96893123533516	925.8452491992899	0.0	443.3910905723501	864.3656237732957	0.0	515.8836364239605	816.2796588314939	0.0
210	7.0	404.71520766839717	1187.0286005481466	0.0	424.4821068848398	1202.001974209914	0.0	419.9532491682763	1432.621277138221	0.0	337.3205484371734	1625.5318398397417	0.0	380.238343172885	1776.7266127659623	0.0	369.47963134690553	1765.2525952938877	0.0	299.09173168487877	1642.8097687305913	0.0	384.61827713545665	1196.8302275392189	0.0	458.5017355358384	1326.6058968601494	0.0	461.2760176561627	1426.49260908565	0.0	505.9335411161577	1439.3488234898473	0.0	514.676371797539	1437.946834197133	0.0	457.7147133629133	1438.729459869231	0.0	412.2194422077829	900.3123612802714	0.0	436.15738430815037	772.7407668606913	0.0	480.34144744333264	847.9337114566124	0.0	405.4146353567998	928.270063448156	0.0	319.7117345229011	967.9035317257693	0.0	414.2644752418076	910.1204875614162	0.0	401.99230843135535	933.6069950067368	0.0	375.25348497573515	956.6063815629407	0.0	445.8474707496186	907.078225827513	0.0
211	7.033333333333333	405.59326830390626	1179.8299500998392	0.0	445.40824844936014	1191.4512779462784	0.0	430.25712498831666	1422.6994510754864	0.0	353.13795146486444	1573.905360821374	0.0	344.1545507485138	1738.6412040815994	0.0	352.92518194873344	1722.7959258859194	0.0	320.72560115836984	1582.9688228485793	0.0	362.46377596007926	1193.1630125487704	0.0	447.5733747488115	1305.7579255044534	0.0	459.89917669520855	1434.6569700390176	0.0	508.2561513999863	1437.448633848366	0.0	507.04196504316934	1442.4068983333518	0.0	452.74423392704284	1451.5705984825208	0.0	405.0743236122482	905.6092793305074	0.0	405.5593795738072	776.3630161756339	0.0	439.6775063933673	849.0820792910827	0.0	436.96472294934335	926.5384400079377	0.0	425.5441815990638	949.394292990364	0.0	414.0684642851592	867.101229814728	0.0	362.45982266367605	951.6708878170191	0.0	326.1864172722169	1052.890986870459	0.0	389.59164546877804	995.0666491973604	0.0
212	7.066666666666666	406.6421133169804	1174.0130570898232	0.0	457.62226440990037	1183.1136210865602	0.0	445.1021876073389	1417.1094136376626	0.0	362.8308609765235	1529.2895558359362	0.0	308.4780438005554	1692.0593176908937	0.0	331.788165871791	1674.826590851252	0.0	332.01581874354184	1529.2247985537558	0.0	355.9847770289946	1190.5335398717175	0.0	448.6896622313226	1295.1382059825555	0.0	458.95869349087405	1437.5819455310116	0.0	507.590353340526	1434.4334514497573	0.0	490.4379300369907	1444.7644554697338	0.0	444.9874606021602	1447.8776622716034	0.0	395.4589522180312	913.3339311359218	0.0	373.9265723055719	786.3301360538783	0.0	399.6060673616258	857.1803597922927	0.0	464.42273890546767	928.4493016908366	0.0	534.1189522614972	912.1338791386745	0.0	449.45866798799665	844.9418352858199	0.0	333.72496386420477	976.7352392310366	0.0	312.8677218009847	1120.130016314936	0.0	372.15728241271574	1066.7106357077125	0.0
213	7.1	411.0226946697002	1167.5064061642772	0.0	465.19687372691556	1175.1547252072346	0.0	457.6080517559274	1412.651518852247	0.0	365.4996332487635	1500.9088275546878	0.0	290.1561817034128	1652.1383973016143	0.0	317.01007212383826	1636.2528998874984	0.0	332.0439124685998	1493.6892522916992	0.0	361.2321112965816	1184.9240708181214	0.0	448.1160409160757	1306.8218680328625	0.0	457.0987537513241	1438.1593550623788	0.0	498.231069344581	1431.4890048633588	0.0	471.2089699140666	1446.9223434587575	0.0	439.8554233321811	1436.4046990970016	0.0	384.36809311948775	917.8400664789604	0.0	350.86562627319125	801.3700711462126	0.0	376.2584474641521	867.4831955445122	0.0	478.8293347940221	928.412872097318	0.0	600.330010413339	876.9586914728643	0.0	530.4229528768748	825.0584462695929	0.0	318.642780515453	996.7982969241897	0.0	317.31838724950535	1149.2579655667018	0.0	377.831358144281	1127.5063573744096	0.0
214	7.133333333333333	419.07901299102434	1156.5575705559615	0.0	472.53431419151843	1162.3682806188099	0.0	467.96341492055757	1400.0448016895084	0.0	362.61514331374076	1485.9203317183642	0.0	290.2733416047678	1625.9686111155688	0.0	311.6805715171249	1612.1228219705235	0.0	326.0410545859165	1475.4070315084234	0.0	371.0549544883102	1173.2737872562825	0.0	440.07408444598155	1325.0652221251044	0.0	458.33763884227585	1435.9697692455306	0.0	486.68654372328774	1432.1440729576607	0.0	463.30385552622124	1449.293500954685	0.0	444.4476583701031	1430.3050574671956	0.0	375.3530366102503	916.3468586620577	0.0	336.31684712668334	814.9851929286829	0.0	365.1674761473669	874.2413554301451	0.0	480.7663441136599	923.1412451814924	0.0	610.5079187385561	872.0701604489793	0.0	599.1618609923422	820.263742014095	0.0	313.0090751550142	1001.2130771074566	0.0	321.8783831983182	1147.676553350347	0.0	380.05641959730593	1161.8034707922943	0.0
